<?xml version="1.0" ?><svg enable-background="new 0 0 52 52" id="Layer_1" version="1.1" viewBox="0 0 52 52" xml:space="preserve" xmlns="http://www.w3.org/2000/svg" xmlns:xlink="http://www.w3.org/1999/xlink"><g><g><path d="M41.9453125,21.5018311h-4.2896729c-0.5157471-1.9935913-1.5270386-3.7866821-2.9024658-5.239563    l2.2854004-3.1764526c0.3227539-0.4482422,0.2207031-1.0732422-0.2275391-1.3955078    c-0.4487305-0.3227539-1.0727539-0.2202148-1.3955078,0.2275391l-2.1628418,3.0061646    c-1.7565918-1.3252563-3.8815308-2.1814575-6.197998-2.374939V8.5018311c0-0.5522461-0.4477539-1-1-1s-1,0.4477539-1,1v4.046875    c-2.3463745,0.1946411-4.4990234,1.0700684-6.270874,2.4260254l-2.1993408-3.0568848    c-0.3232422-0.4482422-0.9477539-0.5517578-1.3955078-0.2275391c-0.4482422,0.3222656-0.550293,0.9472656-0.2275391,1.3955078    l2.3311768,3.2401123c-1.3464355,1.4417114-2.3384399,3.2108765-2.8475952,5.1759033h-4.3903198c-0.5522461,0-1,0.4477539-1,1    s0.4477539,1,1,1h4.0458984c-0.0273438,0.3294067-0.0505981,0.6600952-0.0505981,0.9963379v10.0905151    c0.3259277-0.0549927,0.6585083-0.090271,0.9998169-0.090271h22c0.3414307,0,0.6741333,0.0352783,1.0001831,0.090332V24.4981689    c0-0.3362427-0.0231934-0.6669312-0.0504761-0.9963379h3.9458008c0.5522461,0,1-0.4477539,1-1    S42.4975586,21.5018311,41.9453125,21.5018311z M24.0546875,19.5018311c-1.6542969,0-3,1.3457031-3,3c0,0.5522461-0.4477539,1-1,1    s-1-0.4477539-1-1c0-2.7568359,2.2431641-5,5-5c0.5522461,0,1,0.4477539,1,1S24.6069336,19.5018311,24.0546875,19.5018311z" fill="#3A92CC"/></g><g><path d="M37.0499878,36.4981689h-22c-2.1999512,0-4,1.7999878-4,4c0,2.210022,1.8000488,4,4,4h22c2.210022,0,4-1.789978,4-4    C41.0499878,38.2981567,39.2600098,36.4981689,37.0499878,36.4981689z"/></g></g></svg>