<svg height="512pt" viewBox="0 0 512 512" width="512pt" xmlns="http://www.w3.org/2000/svg" xmlns:xlink="http://www.w3.org/1999/xlink"><linearGradient id="linear0" gradientUnits="userSpaceOnUse" x1="0" x2="512" y1="256" y2="256"><stop offset="0" stop-color="#00f2fe"/><stop offset=".0208" stop-color="#03effe"/><stop offset=".2931" stop-color="#24d2fe"/><stop offset=".5538" stop-color="#3cbdfe"/><stop offset=".7956" stop-color="#4ab0fe"/><stop offset="1" stop-color="#4facfe"/></linearGradient><path d="m492 472h-56v-50c0-11.046875-8.953125-20-20-20h-50v-51h44.796875c15.773437 0 30.539063-7.011719 40.511719-19.230469 9.882812-12.117187 13.757812-27.816406 10.632812-43.074219-2.21875-10.820312-12.789062-17.792968-23.609375-15.578124-10.820312 2.214843-17.796875 12.785156-15.578125 23.605468.964844 4.707032-1.113281 8.132813-2.4375 9.757813-2.34375 2.871093-5.8125 4.519531-9.519531 4.519531h-309.589844c-3.707031 0-7.175781-1.644531-9.519531-4.519531-1.328125-1.625-3.40625-5.050781-2.441406-9.757813 16.109375-78.644531 86.242187-135.722656 166.753906-135.722656 50.472656 0 98.039062 22.179688 130.503906 60.855469 7.101563 8.460937 19.71875 9.558593 28.175782 2.457031 8.460937-7.101562 9.5625-19.714844 2.460937-28.175781-40.082031-47.75-98.816406-75.136719-161.140625-75.136719-48.714844 0-96.199219 17.03125-133.714844 47.953125-37.007812 30.507813-62.65625 73.03125-72.226562 119.742187-3.125 15.257813.75 30.957032 10.632812 43.070313 9.972656 12.226563 24.738282 19.234375 40.511719 19.234375h44.796875v51h-50c-11.046875 0-20 8.953125-20 20v50h-56c-11.046875 0-20 8.953125-20 20s8.953125 20 20 20h76c11.046875 0 20-8.953125 20-20v-50h280v50c0 11.046875 8.953125 20 20 20h76c11.046875 0 20-8.953125 20-20s-8.953125-20-20-20zm-306-121h140v51h-140zm50-290v-41c0-11.046875 8.953125-20 20-20s20 8.953125 20 20v41c0 11.046875-8.953125 20-20 20s-20-8.953125-20-20zm101.226562 11.734375 15.15625-38.097656c4.082032-10.265625 15.710938-15.273438 25.976563-11.1875 10.261719 4.082031 15.273437 15.710937 11.191406 25.976562l-15.15625 38.09375c-3.121093 7.839844-10.640625 12.613281-18.589843 12.613281-2.460938 0-4.960938-.457031-7.386719-1.421874-10.265625-4.085938-15.273438-15.714844-11.191407-25.976563zm89.347657 75.496094c-8.074219-7.535157-8.511719-20.191407-.972657-28.265625l27.972657-29.976563c7.535156-8.074219 20.191406-8.511719 28.269531-.972656 8.074219 7.535156 8.511719 20.191406.972656 28.265625l-27.972656 29.976562c-3.941406 4.21875-9.277344 6.351563-14.625 6.351563-4.890625 0-9.789062-1.777344-13.644531-5.378906zm-397.300781-31.042969c-7.535157-8.078125-7.09375-20.730469.984374-28.265625 8.082032-7.535156 20.734376-7.09375 28.269532.988281l27.960937 29.984375c7.53125 8.078125 7.089844 20.734375-.988281 28.265625-3.851562 3.597656-8.75 5.375-13.636719 5.375-5.351562 0-10.691406-2.136718-14.628906-6.359375zm93.292968-67.820312c-4.078125-10.261719.9375-21.890626 11.199219-25.96875 10.265625-4.082032 21.894531.933593 25.972656 11.199218l15.140625 38.101563c4.082032 10.265625-.933594 21.894531-11.199218 25.972656-2.421876.960937-4.921876 1.417969-7.378907 1.417969-7.957031 0-15.476562-4.777344-18.59375-12.617188zm0 0" fill="url(#linear0)"/></svg>